<svg width="104" height="104" viewBox="0 0 104 104" fill="none" xmlns="http://www.w3.org/2000/svg">
<path d="M29.25 57.6875C29.25 59.1959 29.8492 60.6426 30.9158 61.7092C31.9824 62.7758 33.4291 63.375 34.9375 63.375C36.4459 63.375 37.8926 62.7758 38.9592 61.7092C40.0258 60.6426 40.625 59.1959 40.625 57.6875C40.625 56.1791 40.0258 54.7324 38.9592 53.6658C37.8926 52.5992 36.4459 52 34.9375 52C33.4291 52 31.9824 52.5992 30.9158 53.6658C29.8492 54.7324 29.25 56.1791 29.25 57.6875ZM63.6492 69.8445C61.3031 71.693 56.6516 73.6836 52 73.6836C47.3484 73.6836 42.6969 71.693 40.3508 69.8445C38.8883 68.6969 36.7656 68.9406 35.6078 70.4031C34.45 71.8656 34.7039 73.9883 36.1664 75.1461C40.2492 78.3656 46.4648 80.4375 52 80.4375C57.5352 80.4375 63.7508 78.3656 67.8336 75.1461C68.5366 74.5912 68.9904 73.7798 69.0952 72.8903C69.2 72.0008 68.9471 71.1062 68.3922 70.4031C67.8373 69.7001 67.0259 69.2463 66.1364 69.1415C65.2469 69.0368 64.3522 69.2896 63.6492 69.8445ZM97.5 46.3125C97.5 40.0258 92.4117 34.9375 86.125 34.9375C81.8492 34.9375 78.132 37.2938 76.182 40.7875C70.332 37.5883 63.2125 35.5266 55.4531 35.0492L62.2477 19.8047L75.2375 23.5523C76.4055 26.8633 79.5641 29.25 83.2812 29.25C87.9938 29.25 91.8125 25.4313 91.8125 20.7188C91.8125 16.0062 87.9938 12.1875 83.2812 12.1875C80.0312 12.1875 77.2078 14.0055 75.7656 16.6766L61.293 12.4922C60.5099 12.2647 59.671 12.3287 58.9316 12.6723C58.1921 13.0159 57.6022 13.6158 57.2711 14.3609L48.0492 35.0695C40.4828 35.5977 33.5359 37.6492 27.818 40.7773C26.8319 39.0058 25.3901 37.5301 23.6418 36.5033C21.8935 35.4765 19.9025 34.9359 17.875 34.9375C11.5883 34.9375 6.5 40.0258 6.5 46.3125C6.5 50.9641 9.29297 54.9555 13.2844 56.7227C12.5633 58.8555 12.1875 61.0898 12.1875 63.375C12.1875 79.0766 30.0117 91.8125 52 91.8125C73.9883 91.8125 91.8125 79.0766 91.8125 63.375C91.8125 61.0797 91.4266 58.8555 90.7156 56.7227C94.707 54.9555 97.5 50.9641 97.5 46.3125ZM83.2812 17.5195C83.7014 17.5195 84.1174 17.6023 84.5055 17.7631C84.8937 17.9238 85.2464 18.1595 85.5434 18.4566C85.8405 18.7536 86.0762 19.1063 86.2369 19.4945C86.3977 19.8826 86.4805 20.2986 86.4805 20.7188C86.4805 21.1389 86.3977 21.5549 86.2369 21.943C86.0762 22.3312 85.8405 22.6839 85.5434 22.9809C85.2464 23.278 84.8937 23.5137 84.5055 23.6744C84.1174 23.8352 83.7014 23.918 83.2812 23.918C82.4328 23.918 81.619 23.5809 81.0191 22.9809C80.4191 22.381 80.082 21.5672 80.082 20.7188C80.082 19.8703 80.4191 19.0565 81.0191 18.4566C81.619 17.8566 82.4328 17.5195 83.2812 17.5195ZM12.1875 46.3125C12.1875 43.1742 14.7367 40.625 17.875 40.625C18.9524 40.6258 20.0075 40.9327 20.9173 41.5099C21.8271 42.087 22.5542 42.9108 23.0141 43.8852C20.0383 46.1398 17.5805 48.7398 15.7523 51.5938C14.7006 51.1673 13.7998 50.4371 13.1649 49.4965C12.53 48.5559 12.1897 47.4474 12.1875 46.3125ZM52 85.0586C33.7391 85.0586 18.9414 75.3492 18.9414 63.375C18.9414 51.4008 33.7391 41.6914 52 41.6914C70.2609 41.6914 85.0586 51.4008 85.0586 63.375C85.0586 75.3492 70.2609 85.0586 52 85.0586ZM88.2375 51.5938C86.4195 48.7398 83.9516 46.1398 80.9758 43.8852C81.8898 41.9656 83.85 40.625 86.1148 40.625C89.2531 40.625 91.8023 43.1742 91.8023 46.3125C91.8125 48.6992 90.3297 50.7508 88.2375 51.5938ZM63.375 57.6875C63.375 59.1959 63.9742 60.6426 65.0408 61.7092C66.1074 62.7758 67.5541 63.375 69.0625 63.375C70.5709 63.375 72.0176 62.7758 73.0842 61.7092C74.1508 60.6426 74.75 59.1959 74.75 57.6875C74.75 56.1791 74.1508 54.7324 73.0842 53.6658C72.0176 52.5992 70.5709 52 69.0625 52C67.5541 52 66.1074 52.5992 65.0408 53.6658C63.9742 54.7324 63.375 56.1791 63.375 57.6875Z" fill="#DA2538"/>
</svg>
